<svg xmlns="http://www.w3.org/2000/svg" viewBox="0 0 2142 722">
<g transform="scale(0.333333)" fill="#FAF2DE">
<path transform="translate(628.8125,4.6875)" d="M0 0 C0.6 0 1.3 0.1 2 0.1 C14.5 0.7 25.9 3.4 37.2 8.8 C41.6 10.7 45.9 12.6 50.4 14.2 C57.3 16.7 63.1 20.2 69.2 24.3 C70.8 25.3 72.4 26.3 74.1 27.2 C77.8 29.5 81.5 31.7 85.2 34 C108.7 48.5 108.7 48.5 116.8 53.1 C121.7 56 126.5 59.1 131.2 62.3 C132.6 63.3 134 64.2 135.4 65.1 C139.8 68 144.1 71 148.4 74 C151.5 76.2 154.7 78.3 157.9 80.3 C165.2 85.1 171.4 91.4 177.5 97.6 C179.3 99.4 181.3 101.1 183.2 102.8 C186.7 105.7 189.3 108.8 191.8 112.6 C194.4 115.8 196.6 116.2 200.6 116.7 C204.6 116.6 206.3 114.9 209.1 112.1 C220 101.4 232.7 93.5 246.5 87.1 C248.8 86 251 84.8 253.3 83.6 C289.6 65.6 338.8 61.5 377.5 72.8 C379.1 73.3 380.6 73.7 382.2 74.1 C394.3 77.1 405.2 82.7 416.2 88.3 C418.3 89.4 420.3 90.4 422.3 91.4 C434.2 97.3 445 105.5 455.2 114 C458.9 117.1 462.7 120 466.5 122.8 C468.2 124.3 468.2 124.3 469.2 127.3 C469.8 127.3 470.5 127.3 471.2 127.3 C471.5 127.7 471.5 127.7 473 129.7 C474.7 131.8 475.9 133 478.2 134.3 C478.2 135 478.2 135.6 478.2 136.3 C479.2 136.6 480.2 137 481.2 137.3 C482.7 139 482.7 139 484.4 141.2 C484.7 141.7 484.7 141.7 486.2 143.7 C486.9 144.6 487.5 145.4 488.2 146.3 C489.5 148 490.8 149.6 492.1 151.2 C492.8 152.1 493.5 152.9 494.1 153.8 C495.5 155.5 496.9 157.1 498.2 158.8 C503.1 164.7 507.2 170.8 511.2 177.3 C511.5 177.8 511.5 177.8 512.9 180 C514.2 182.3 514.2 182.3 514.2 184.3 C516.2 184.3 518.1 184.3 520.2 184.3 C524.6 179.8 526.6 175.2 529 169.4 C534.3 156.1 542.2 143.4 551.2 132.3 C551.9 131.5 552.5 130.6 553.2 129.7 C555.1 127.4 557.1 125 559 122.7 C560.1 121.4 561.2 120.1 562.2 118.8 C567.5 112.7 573.3 107.8 579.8 102.9 C583.5 100 586 98 587.2 93.3 C583.9 93.5 580.6 93.6 577.3 93.8 C576.4 93.8 575.5 93.8 574.5 93.9 C562.4 94.4 551.3 96 539.7 99.6 C536.4 100.5 533 101.1 529.6 101.8 C527.2 102.3 525.1 103.1 522.9 103.9 C514.7 106.7 506.7 106.4 498.9 102.9 C492.4 99.2 486.2 94.1 483.7 86.8 C483.4 85.1 483.4 85.1 483.2 83.3 C483.1 82.6 483.1 82 483 81.3 C482.4 69.1 487.3 60.1 495.2 51.3 C497.7 48.8 500.4 46.6 503.2 44.3 C504.5 43.1 505.7 42 507 40.8 C514 34.7 522.2 30.2 530.4 25.8 C532.3 24.8 534.1 23.8 535.9 22.8 C541.2 19.8 546.4 17.3 552.1 15.2 C555.7 13.9 559.1 12.5 562.5 10.9 C568.3 8.3 573.5 6.6 579.9 5.8 C582.7 5.4 585.3 4.7 588.1 3.8 C599.2 0.5 610.4 0.8 621.9 0.9 C625.3 0.9 628.8 0.9 632.3 0.9 C634.5 1 636.8 1 639 1 C640 1 641.1 1 642.1 1 C647.3 1.1 651.4 1.3 656.2 3.3 C657.7 3.7 659.2 4 660.8 4.2 C698.5 11.6 732.1 31.8 761.1 56.7 C763.7 58.9 766.4 61.1 769.1 63.2 C778 70.3 786.8 77.8 793.5 87.1 C795.5 89.8 797.8 92.2 800.1 94.6 C808.6 103.9 815.5 114.1 822.2 124.7 C823.1 126.2 824.1 127.6 825 129.1 C832 139.6 837.4 150.9 842 162.5 C843.2 165.3 844.5 168 845.8 170.8 C848.1 175.8 849.7 180.9 851.3 186.3 C851.9 188.2 852.5 190.2 853.2 192.1 C854.5 196.2 855.1 200.3 855.8 204.6 C855.9 205.4 856 206.3 856.1 207.1 C856.5 209.5 856.8 211.9 857.2 214.3 C857.3 215.3 857.5 216.2 857.6 217.2 C857.9 219.6 858.1 221.9 858.2 224.3 C858.2 224.9 858.3 225.4 858.3 226 C859.5 242.5 855.9 259.7 845.4 272.8 C839.2 279.8 832.3 282.8 823 283.6 C811.9 283.9 803.2 281.1 794.8 273.9 C788.1 267.4 784.1 259.6 780.2 251.3 C779.7 250.3 779.1 249.3 778.6 248.2 C777.4 245.8 776.5 243.6 775.8 241 C774.5 237.1 772.9 233.4 771.2 229.6 C770.1 227.2 769.2 224.7 768.2 222.2 C766.7 218.3 764.8 215 762.5 211.5 C760.9 208.9 759.6 206.2 758.2 203.4 C756 198.7 753.4 194.5 750.4 190.2 C749.2 188.3 748.6 186.6 748.2 184.3 C747.5 184.3 746.9 184.3 746.2 184.3 C742 179.2 737.8 174.2 733.9 168.9 C725.6 157.5 717.2 148.6 705.2 141.3 C704.2 140.6 703.2 140 702.2 139.3 C695.6 134.9 688.6 131.1 681.2 128.3 C680.5 128 679.8 127.8 679.1 127.5 C668.6 123.6 659.5 125.3 649.3 129.5 C627.9 139.5 611.6 156.8 600.2 177.3 C599.8 177.9 599.4 178.6 599 179.2 C597.3 182.1 596 184.7 595.1 188 C594.2 191.3 594.2 191.3 592.8 193.2 C588.5 198.9 587 206.5 585.6 213.4 C585.2 215.3 585.2 215.3 584 218.1 C583.1 220.6 583.3 221.8 584.2 224.3 C588.3 223.7 591.7 222.3 595.4 220.4 C607.6 214.7 618.3 213.1 631.7 213.2 C632.6 213.2 633.4 213.2 634.3 213.2 C643 213.2 650.4 213.3 658.2 217.3 C659.6 217.6 661.1 217.8 662.6 218 C678.8 221 692.6 232.3 702.9 244.8 C704.2 246.3 704.2 246.3 706.7 248.7 C711.6 253.5 715.1 259.5 717.5 265.8 C718.2 267.3 718.2 267.3 719.7 269.8 C723.7 276.7 725.4 284.5 727.2 292.3 C727.5 293.4 727.8 294.5 728 295.7 C730.1 304.5 730.5 313.2 730.5 322.2 C730.5 323.3 730.5 324.5 730.5 325.6 C730.4 335.2 728.8 344 725.9 353.1 C725.8 353.4 725.8 353.4 725.3 355.1 C721.9 365.6 717.8 375.5 711.2 384.3 C710.9 384.7 710.9 384.7 709.4 386.6 C707.7 388.9 706 391.1 704.2 393.3 C703.8 393.9 703.3 394.4 702.9 395 C699.5 399.3 695.4 402.8 691.2 406.3 C690.7 406.7 690.2 407.2 689.7 407.6 C670.6 424.5 645.3 431.6 620.2 430.3 C594.3 428.1 573.4 418.7 555.2 400.3 C554.8 399.9 554.3 399.5 553.9 399 C546.5 391.5 540.7 382.9 536.2 373.3 C535.9 372.7 535.6 372.2 535.2 371.6 C532.1 365.8 530.6 359.8 529.2 353.3 C526 353.9 524.7 354.5 522.8 357.1 C518.1 363.2 511.6 366.2 504.2 367.7 C495.9 368.5 487.4 363.8 481.2 358.7 C479.5 356.7 478.4 354.6 477.2 352.3 C476.9 351.8 476.5 351.3 476.2 350.8 C468 338.2 468.3 324.7 468.3 310.2 C468.3 309.8 468.3 309.8 468.3 307.8 C468.3 306.3 468.3 304.8 468.4 303.3 C468.4 298.6 467.6 294.8 466.2 290.3 C466 288.2 465.8 286.1 465.6 284 C463.3 262.5 452.6 237.1 439.2 220.3 C437.8 218.4 436.5 216.6 435.1 214.7 C434.8 214.2 434.8 214.2 433.1 211.9 C431.9 210.3 430.7 208.6 429.5 206.9 C425.3 201.2 420.4 196.8 414.7 192.5 C413.1 191.3 411.6 190 410 188.7 C399.5 180.3 388.9 175 375.8 171.8 C374.4 171.4 372.9 170.9 371.4 170.4 C351.5 164.2 327.9 168.3 309.4 177.3 C307.7 178.3 305.9 179.3 304.2 180.3 C303.7 180.6 303.7 180.6 301.2 181.8 C292.8 186.2 287.5 190.8 281.6 198.2 C279.4 200.9 277.2 203.3 274.6 205.7 C266.9 213.1 263 224.6 259.2 234.3 C258.7 235.4 258.3 236.6 257.8 237.7 C254.6 246 252 253.3 251.6 262.2 C251.5 262.9 251.5 263.6 251.4 264.3 C251.4 266 251.3 267.6 251.2 269.3 C254.9 268.7 257.1 267 260 264.7 C276 252.6 296.2 247.2 316.1 247.1 C316.9 247.1 317.7 247 318.5 247 C323.2 247.1 326.8 247.7 331.2 249.3 C332.8 249.4 334.4 249.5 336.1 249.5 C343.5 250.1 349.8 253.3 356.5 256.5 C357.8 257.1 359.2 257.8 360.6 258.4 C384 269.1 401 292.1 410 315.5 C412.1 321.3 413.2 327.2 414.2 333.3 C414.4 334.3 414.6 335.3 414.8 336.3 C417.2 350.3 418.3 367.9 413.2 381.3 C412.9 382.6 412.7 383.9 412.4 385.1 C409.1 400.2 402.9 414.3 393.2 426.3 C392.1 427.9 391 429.5 389.9 431.1 C383.9 439.6 377.5 446.1 369.2 452.3 C368.5 452.8 367.9 453.3 367.2 453.8 C360.9 458.4 354.1 461.9 347.1 465.4 C346.4 465.7 345.8 466.1 345.1 466.4 C343.7 467.1 342.4 467.7 341 468.4 C339.4 469.2 337.8 470 336.2 470.9 C332.5 472.6 328.9 473.8 325 474.9 C324.3 475.2 323.6 475.4 322.9 475.6 C313.2 478.5 303.3 478.5 293.3 478.4 C292.8 478.4 292.8 478.4 290.1 478.4 C278.1 478.3 267.4 477.5 255.9 473.8 C254.2 473.3 252.5 472.9 250.8 472.4 C244.1 470.6 239.2 468.3 233.7 464.1 C231 462.2 228.2 460.8 225.2 459.4 C216.5 455.2 209.6 449 202.9 442.1 C201.5 440.7 200.1 439.3 198.6 437.9 C192.1 431.3 187.6 422.8 183 414.8 C182.5 413.9 182 413 181.5 412.1 C163.8 380.9 162 343.9 161.8 308.9 C161.8 307.9 161.8 306.9 161.8 305.9 C161.7 295.7 162 286.2 164.5 276.2 C165.4 272.3 165.7 268.4 165.8 264.4 C165.9 259.6 166.3 255.5 167.7 251 C168.8 247.2 168.7 243.3 168.8 239.4 C169.2 236.3 170 234.1 171.2 231.3 C171.2 229.2 171.2 229.2 170.9 227.2 C170.9 226.9 170.9 226.9 170.7 225.2 C170.2 223.2 169.4 221.9 168.2 220.3 C162.2 220.8 157.5 222.6 152.2 225.3 C151.4 225.7 150.6 226.1 149.8 226.5 C134.5 234.7 125.7 248.7 117.8 263.5 C113.8 270.5 109.1 276.9 104.6 283.5 C103.9 284.4 103.3 285.4 102.6 286.3 C101.3 288.2 100 290 98.7 291.9 C90.5 303.8 85.2 313.4 85.4 328.1 C85.5 331.6 85.4 335.1 85.4 338.6 C85.3 339.3 85.3 340 85.3 340.7 C85.2 348.4 84 355.8 82.2 363.3 C81.9 364.4 81.7 365.5 81.4 366.6 C80.7 369.5 80 372.4 79.2 375.3 C79 376.2 78.7 377 78.5 377.9 C76.1 386.3 72.8 394.1 69.2 402 C68.1 404.4 67.2 406.8 66.3 409.2 C64.5 413.8 62.2 417.8 59.6 421.9 C58.4 424 57.3 426.1 56.2 428.3 C51.6 437.7 44.9 444.9 37.7 452.4 C34.3 456 31.1 459.6 28.1 463.5 C22.9 470.2 16.5 475.7 10.2 481.3 C9.4 482 8.7 482.7 7.9 483.4 C-3.7 493.8 -17.4 504.1 -31.8 510.3 C-32.6 510.6 -33.3 511 -34.1 511.3 C-48.8 517.5 -62.6 519.9 -77.9 514.6 C-88.3 510.1 -96.1 502.8 -100.7 492.3 C-102.3 488 -103.6 483.6 -104.5 479.1 C-104.8 477.3 -104.8 477.3 -105.8 475.3 C-107.7 459.1 -101.7 442.2 -95.8 427.3 C-91.5 416.3 -89.3 404.8 -86.8 393.3 C-86.6 392.2 -86.3 391.2 -86.1 390.1 C-84.2 380.5 -83.8 370.7 -86.8 361.3 C-89.5 358.6 -91.5 358.6 -95.2 358.3 C-98.9 358.3 -102.1 359.3 -105.6 360.5 C-115 362.9 -124.9 362.5 -134.5 362.5 C-136.7 362.5 -138.9 362.5 -141.1 362.5 C-161.9 362.6 -182.1 358.1 -198.7 344.9 C-201.6 342.7 -204.7 341 -207.8 339.3 C-217.3 333.8 -226.7 327.7 -235.5 321.1 C-240 317.7 -244.6 315.3 -249.6 312.9 C-254.5 310.6 -258.9 307.8 -263.4 304.9 C-269 301.3 -274.9 298.8 -281.2 296.5 C-285.7 294.8 -289.9 292.9 -294.3 290.9 C-301.4 287.5 -307.6 284.8 -315.6 284 C-320.2 283 -324.4 281.3 -328.8 279.5 C-329.6 279.1 -330.5 278.8 -331.4 278.4 C-335 276.9 -338.7 275.4 -342.2 273.8 C-355.4 268.2 -369.9 267.3 -384 266.7 C-389.8 266.5 -395.4 265.7 -401.1 264.8 C-409.2 263.5 -417.2 262.9 -425.4 262.7 C-431.5 262.4 -437.3 261.8 -443.4 260.8 C-447.4 260.2 -451.3 260 -455.4 259.9 C-462.8 259.5 -469.6 258.3 -476.8 256.3 C-477.8 256.1 -478.8 255.8 -479.8 255.6 C-484.4 254.4 -488.7 253 -493 251.1 C-494.7 250.4 -496.4 249.7 -498.1 249.1 C-513.7 243 -526.5 232.6 -533.8 217.3 C-535 214.7 -535.9 212 -536.8 209.3 C-537 208.7 -537.2 208.1 -537.4 207.5 C-541.1 195.7 -539.1 184.8 -533.7 174 C-521.9 151.9 -487.7 136.7 -464.9 129.7 C-462.1 128.9 -459.3 128.1 -456.5 127.3 C-451.2 125.8 -446.1 124.1 -441 122.3 C-434.6 120.1 -428.3 118.4 -421.8 116.9 C-412.8 114.8 -405 111.4 -396.8 107.3 C-384.7 101.4 -372.8 98.4 -359.6 96.3 C-354.8 95.5 -350.2 94.4 -345.5 93.1 C-343.8 92.6 -342.1 92.1 -340.3 91.7 C-334.2 90.3 -328.8 88 -323.2 85.4 C-315.8 81.9 -308.7 79.8 -300.7 78.2 C-296.2 77.2 -292 75.8 -287.6 74.2 C-285.5 73.5 -283.4 72.9 -281.2 72.4 C-276 71.2 -271 69.4 -265.9 67.7 C-250.5 62.5 -235 57.6 -219.3 53.2 C-218.7 53 -218.1 52.8 -217.4 52.6 C-214.4 51.8 -211.4 50.9 -208.4 50.1 C-202.2 48.4 -196.2 46.5 -190.2 44.2 C-187.2 43.1 -184.2 42.4 -181.1 41.8 C-174.6 40.4 -168.4 38.6 -162.3 36 C-155.9 33.3 -149.5 31.1 -143.1 28.9 C-140.8 28.1 -138.5 27.3 -136.2 26.5 C-135.6 26.3 -135.1 26.1 -134.5 25.9 C-116 19.6 -116 19.6 -108.6 15.7 C-102.9 12.7 -97 11 -90.8 9.3 C-90.1 9.1 -89.3 8.9 -88.5 8.7 C-82.9 7.3 -77 6.7 -71.2 6 C-66 5.4 -66 5.4 -63.8 4.3 C-61.4 4 -58.9 3.7 -56.5 3.4 C-51.5 2.8 -46.5 2.1 -41.5 1.2 C-27.6 -0.9 -14 -0.8 0 0 Z "/>
<path transform="translate(1840,226)" d="M0 0 C0.6 0.3 1.2 0.5 1.9 0.8 C12.7 5.6 22.6 11.6 30 21 C31.3 22.1 32.6 23.2 33.9 24.2 C38.2 28 41 32.1 44 37 C44.7 38.1 45.4 39.2 46.1 40.3 C46.8 41.4 47.5 42.6 48.2 43.8 C48.4 44 48.4 44 49.3 45.4 C51.2 48.5 52.7 51.6 54 55 C54.4 55.5 54.7 56.1 55.1 56.6 C56.5 58.7 56.8 61 57.4 63.4 C58 66 58.7 68.4 59.5 70.9 C66.2 93.3 65.1 115.4 60 138 C59.9 138.3 59.9 138.3 59.6 139.8 C58 147 55.3 153.5 52 160 C51.7 160.7 51.3 161.4 50.9 162.1 C45.9 171.9 40.8 180.2 33 188 C31.8 189.4 30.6 190.8 29.4 192.2 C21 201.8 10.3 209.1 -1 215 C-1.9 215.5 -2.8 216 -3.7 216.5 C-9.8 219.7 -15.6 221.9 -22.4 223.4 C-24.9 224 -26.8 224.7 -29 226 C-30.2 228.4 -30.2 230.2 -30.4 232.8 C-30.8 236.6 -31.4 239.5 -33 243 C-33.3 244.2 -33.6 245.5 -33.9 246.7 C-37.2 260.3 -42 273.4 -48 286 C-48.5 287.2 -49.1 288.5 -49.6 289.7 C-53.5 298.2 -57.8 306.4 -62.6 314.4 C-62.8 314.9 -62.8 314.9 -64.2 317.2 C-67.4 322.5 -70.8 327.6 -74.4 332.7 C-76.1 335.1 -77.8 337.6 -79.4 340 C-84.4 347.1 -89.8 353.8 -95.5 360.3 C-96.5 361.5 -97.5 362.6 -98.5 363.8 C-102.6 368.7 -107.1 372.9 -111.8 377.2 C-116.6 381.6 -121.2 386.1 -125.7 390.7 C-130.9 396 -130.9 396 -134 398 C-134.7 398 -135.3 398 -136 398 C-136 398.7 -136 399.3 -136 400 C-143.4 405.3 -150.9 410.6 -158.4 415.8 C-161.6 418 -164.8 420.3 -168 422.6 C-176.3 428.4 -185 433.5 -193.9 438.3 C-197.9 440.4 -201.7 442.8 -205.6 445.1 C-214.8 450.5 -224 455.2 -234 459 C-239.4 461.1 -244.7 463.3 -249.9 465.9 C-257.6 469.5 -265.6 471.9 -273.7 474.3 C-279.4 476 -285 478 -290.6 480.1 C-294.3 481.4 -298 482.6 -301.9 483.5 C-304.6 484.1 -307.3 484.8 -309.9 485.6 C-310.9 485.8 -311.8 486.1 -312.8 486.3 C-315 487 -315 487 -316 488 C-318.6 488.6 -321.2 489 -323.8 489.5 C-326 490 -326 490 -327 491 C-329.2 491.3 -331.4 491.4 -333.6 491.6 C-336 492 -336 492 -338.4 493 C-341.3 494.1 -344.1 494.6 -347.2 495.1 C-352.8 495.9 -352.8 495.9 -355 497 C-356.9 497.3 -358.7 497.6 -360.6 497.8 C-365.8 498.5 -370.7 499.7 -375.8 501 C-383.5 503 -391.1 504 -399 504.8 C-402 505.1 -404.9 505.6 -407.9 506.1 C-411.8 506.7 -415.6 507.2 -419.6 507.5 C-423.1 507.8 -426.6 508.2 -430.2 508.9 C-438.6 510.3 -447 511.5 -455.4 512.6 C-456.2 512.7 -457.1 512.8 -457.9 512.9 C-473 514.9 -487.9 515.8 -503.1 515.9 C-505.8 516 -508.4 516.3 -511.1 516.7 C-514.7 517.2 -518.4 517.4 -522.1 517.5 C-523 517.6 -523.8 517.6 -524.7 517.7 C-584.6 520.5 -644.8 519.6 -704.5 514.2 C-705.2 514.2 -706 514.1 -706.7 514 C-710.4 513.7 -714.1 513.4 -717.8 513 C-725.6 512.3 -733.3 511.8 -741.1 511.6 C-751.7 511.2 -761.9 509.3 -772.3 507.5 C-777.3 506.6 -782.3 506 -787.3 505.4 C-790 505 -790 505 -793 504 C-794.7 503.8 -796.4 503.7 -798.1 503.5 C-817.5 501.8 -836.8 497.4 -855.7 492.8 C-858.6 492.1 -861.5 491.5 -864.4 490.9 C-868.4 490.2 -872.3 489.1 -876.2 487.9 C-879.6 486.8 -883.1 485.9 -886.6 484.9 C-887.2 484.8 -887.8 484.6 -888.4 484.4 C-891.7 483.6 -895 482.8 -898.4 482.1 C-903.2 481 -907.9 479.6 -912.6 478.1 C-918.1 476.4 -923.6 474.8 -929.2 473.6 C-938.4 471.5 -946.5 467.9 -955 463.9 C-957.8 462.7 -960.6 461.6 -963.4 460.4 C-978.6 454.2 -990.7 443.9 -997.8 429 C-999.5 424.7 -1000.5 420.6 -1001 416 C-1001.1 415.3 -1001.2 414.7 -1001.2 414 C-1001.9 404.6 -997.7 395.8 -991.7 388.7 C-983.2 379.4 -971.3 375.6 -958.9 374.6 C-949.4 374.2 -940.6 375.9 -931.3 378.1 C-927.1 379 -923.1 379.4 -918.8 379.7 C-915 380.1 -911.4 380.7 -907.6 381.4 C-906.9 381.6 -906.3 381.7 -905.6 381.8 C-902.7 382.4 -900.1 382.9 -897.4 384.1 C-894.5 385.2 -891.8 385.5 -888.6 385.8 C-876.8 387 -865.1 389.6 -853.4 391.9 C-844.6 393.7 -835.7 395.2 -826.8 396.5 C-824 397 -824 397 -822.1 397.5 C-820.1 398 -818.2 398.3 -816.2 398.5 C-815.5 398.5 -814.8 398.6 -814 398.7 C-813.2 398.8 -812.5 398.9 -811.7 398.9 C-806 399.5 -800.3 400.2 -794.6 401 C-787.7 402 -780.8 402.7 -773.9 403.3 C-773.1 403.4 -772.3 403.5 -771.4 403.5 C-770.7 403.6 -770 403.7 -769.3 403.7 C-767.6 403.9 -765.9 404.2 -764.2 404.5 C-760.6 405.1 -757.1 405.3 -753.4 405.5 C-752 405.5 -750.5 405.6 -749 405.7 C-746.7 405.8 -744.5 405.9 -742.2 406 C-740 406.2 -737.7 406.3 -735.5 406.4 C-734.8 406.4 -734.2 406.5 -733.5 406.5 C-729.3 406.7 -725.2 407.3 -721 408 C-713.4 409.2 -705.8 409.5 -698.2 409.6 C-696.6 409.7 -695.1 409.7 -693.6 409.7 C-677.2 410.1 -660.8 410.2 -644.4 410.1 C-640.1 410.1 -635.9 410.1 -631.7 410.1 C-615.3 410.2 -598.8 410.1 -582.3 409.6 C-581.7 409.5 -581.1 409.5 -580.4 409.5 C-569.9 409.2 -559.5 408.4 -549.1 407.5 C-542.6 406.9 -536 406.7 -529.5 406.5 C-518.9 406.2 -508.1 405.8 -497.6 403.5 C-494.9 403 -492.5 402.9 -489.7 402.8 C-478.5 402.6 -468 401.9 -457 399.4 C-451.9 398.3 -447.1 397.7 -441.9 397.6 C-431.1 397.2 -420.6 394.8 -410 392.6 C-405.4 391.7 -400.7 390.8 -396 390 C-387.2 388.4 -378.5 386.4 -369.8 384 C-365.9 383 -362 382 -358.1 381 C-357.8 380.9 -357.8 380.9 -356.1 380.5 C-352.7 379.6 -349.2 378.8 -345.8 378.1 C-336.5 376 -327.9 373.3 -319.2 369.8 C-315.1 368.3 -311.1 366.8 -307.1 365.3 C-306.3 365 -305.5 364.7 -304.7 364.4 C-299.5 362.5 -294.3 360.7 -289 359 C-281.5 356.5 -274.4 353.4 -267.3 350 C-263.3 348.1 -259.2 346.3 -255.1 344.6 C-247.4 341.5 -240.3 337.3 -233.1 333.2 C-230.4 331.6 -227.7 330.2 -224.9 328.8 C-220.8 326.5 -217 324.1 -213.2 321.4 C-211 320 -211 320 -208.2 318.6 C-204.3 316.7 -200.9 314.3 -197.3 311.9 C-196.6 311.4 -195.9 310.9 -195.2 310.4 C-186.8 304.6 -179.1 298.1 -171.6 291.2 C-170 290 -170 290 -168 290 C-167.8 289.4 -167.5 288.9 -167.3 288.3 C-165.7 285.4 -163.5 283.8 -160.9 281.8 C-152.9 275.4 -145.9 268.5 -140 260 C-139.3 260 -138.7 260 -138 260 C-138 259.3 -138 258.7 -138 258 C-135.8 255.7 -133.5 253.5 -131.2 251.3 C-126.2 246.4 -122 241.3 -117.9 235.6 C-116.8 234 -115.6 232.4 -114.5 230.8 C-113.9 230 -113.3 229.2 -112.8 228.4 C-110.4 225.2 -107.9 222.1 -105.3 219.1 C-103.7 216.6 -103.7 214.9 -104 212 C-104.7 211.5 -105.3 211.1 -106 210.6 C-119.5 200.9 -130.7 191.7 -139 177 C-139.7 175.7 -140.5 174.5 -141.2 173.2 C-145.6 165.7 -149.4 158.4 -152 150 C-152.3 149.2 -152.5 148.4 -152.8 147.6 C-154.7 141.7 -155.7 135.8 -156.6 129.7 C-157 127 -157 127 -158 125 C-160.6 125.2 -163.2 125.4 -165.8 125.7 C-169.1 125.9 -172.3 126.2 -175.5 126.4 C-177.5 126.6 -179.5 126.8 -181.5 126.9 C-182.4 127 -183.4 127.1 -184.4 127.2 C-189.3 127.6 -194.2 128.2 -199.1 129 C-217.6 132.2 -236.3 129.5 -254.8 127.3 C-255.8 127.2 -256.8 127.1 -257.9 126.9 C-288.8 123.3 -288.8 123.3 -300 112 C-304.6 106.2 -307.9 99.6 -307 92 C-304.5 84.1 -299.8 77.1 -292.6 72.7 C-291.4 72.1 -290.2 71.5 -289 71 C-288.3 70.7 -287.6 70.4 -286.9 70.1 C-279.8 67.3 -273 67.4 -265.4 68.5 C-252.2 70.2 -239 70.4 -225.7 70.4 C-224.5 70.4 -223.2 70.4 -222 70.4 C-203.1 70.5 -184.8 69.6 -166.2 65.6 C-163.9 65.2 -161.6 64.8 -159.2 64.6 C-158.9 64.5 -158.9 64.5 -157.3 64.3 C-155.5 64.2 -153.8 64 -152 63.8 C-147.4 62.5 -145.9 59.5 -143.6 55.5 C-143.1 54.6 -142.7 53.8 -142.2 52.9 C-131.2 32.4 -113.9 16.7 -94 5 C-93.7 4.8 -93.7 4.8 -92 3.8 C-65 -11.3 -27.9 -12.4 0 0 Z "/>
<path transform="translate(684.0615234375,580.7392578125)" d="M0 0 C3 0 5.9 0 8.9 -0 C11.8 -0 14.7 -0 17.6 -0 C18.6 -0 19.7 -0 20.8 -0 C29 0 37.1 0.8 45.1 2.8 C47.7 3.5 50.2 3.4 52.9 3.5 C60.1 4 66.4 6.1 72.9 9.3 C73.5 9.5 74 9.8 74.6 10.1 C84.7 15.1 92.8 22.7 97.2 33.3 C97.9 35.6 98.4 37.9 98.9 40.3 C99.3 40.6 99.6 40.9 99.9 41.3 C101.4 57.3 98.9 70.3 88.8 83 C76.7 97.1 59.9 103.6 41.9 106.3 C40.9 106.4 39.8 106.6 38.7 106.7 C36.6 107 34.5 107.4 32.4 107.7 C28.3 108.3 24.2 109.3 20.1 110.3 C12.8 111.9 5.5 113.1 -1.9 114 C-6.3 114.5 -10.6 115.2 -14.9 115.8 C-15.8 115.9 -16.7 116 -17.6 116.1 C-21.6 116.7 -25.6 117.4 -29.6 118.3 C-34.2 119.4 -38.5 119.5 -43.2 119.6 C-50.8 119.9 -57.5 121.2 -64.8 123.3 C-68.3 124.3 -71.6 124.8 -75.2 125.1 C-77.6 125.3 -79.9 126 -82.3 126.7 C-84.2 127.3 -86.1 127.7 -88.1 128.1 C-92.2 129 -96.4 130.1 -100.5 131.3 C-106.3 132.8 -112.1 134.1 -118.1 135.3 C-133.2 138.3 -147.6 143 -162.1 148.3 C-162.7 148.5 -163.3 148.7 -163.9 148.9 C-166.2 149.8 -168.5 150.6 -170.8 151.4 C-173 152.2 -175.2 153 -177.4 153.7 C-183.4 155.7 -189.2 158 -195.1 160.3 C-195.5 160.4 -195.5 160.4 -197.9 161.4 C-200.7 162.5 -203.4 163.5 -206.1 164.6 C-207.7 165.2 -209.3 165.9 -211 166.5 C-216.7 168.8 -222.2 171.3 -227.7 174.1 C-231.3 175.9 -235 177.3 -238.7 178.8 C-243.8 180.8 -248.5 182.9 -253 185.9 C-256.9 188.4 -261.1 190.4 -265.3 192.4 C-265.6 192.6 -265.6 192.6 -267.1 193.3 C-268.5 194 -269.9 194.7 -271.4 195.4 C-277.7 198.5 -283.8 202 -289.9 205.6 C-291.9 206.8 -293.8 207.9 -295.7 209.1 C-296.7 209.6 -297.6 210.2 -298.5 210.8 C-300.7 212 -302.8 213.3 -305 214.5 C-305.5 214.8 -306.1 215.1 -306.6 215.5 C-308 216.2 -309.4 217 -310.7 217.8 C-313.3 219.4 -315.7 221.3 -318.1 223.3 C-319.9 224.6 -321.8 225.9 -323.7 227.1 C-324.3 227.5 -324.8 227.8 -325.3 228.2 C-328.5 230.3 -331.7 232.3 -335.1 234.1 C-340.7 237.5 -345.6 241.7 -350.6 246 C-352.9 247.9 -355.2 249.8 -357.5 251.7 C-366.7 259.2 -375.8 266.9 -384.6 275 C-386.8 277.1 -389.2 279.1 -391.5 281.1 C-393.6 282.9 -395.3 284.6 -397.1 286.8 C-398.9 289.1 -400.8 290.8 -403.1 292.8 C-406.1 295.4 -408.6 298 -411.1 301.3 C-412.3 302.5 -413.5 303.7 -414.7 304.9 C-416.9 307.2 -419 309.6 -421 312.1 C-421.4 312.6 -421.9 313.1 -422.3 313.7 C-424.7 316.5 -427 319.4 -429.2 322.4 C-431.9 326.2 -435 329.5 -438.1 333 C-441.2 336.6 -444.1 340.4 -447.1 344.3 C-448.3 345.8 -449.5 347.4 -450.7 349 C-451.3 349.8 -451.9 350.5 -452.5 351.3 C-453.7 352.8 -455 354.3 -456.2 355.8 C-458.2 358.4 -459.5 361.1 -461 364 C-464.4 371.1 -468.6 377.8 -472.9 384.4 C-477.5 391.6 -481.5 398.7 -485.1 406.4 C-487 410.1 -489 413.9 -490.9 417.6 C-491.4 418.4 -491.8 419.2 -492.2 420 C-494.3 424 -496.4 428 -498.6 432 C-499 432.7 -499.4 433.5 -499.8 434.3 C-500.5 435.7 -501.3 437.1 -502 438.5 C-502.7 439.8 -503.4 441.1 -504.1 442.4 C-504.7 443.6 -505.4 444.9 -506.1 446.2 C-508.4 450.6 -510 454.9 -511.3 459.7 C-512.6 463.9 -514.1 468.1 -515.7 472.2 C-521.9 489.2 -528.2 506.3 -532.3 524 C-533.5 529.3 -535.2 534.5 -536.8 539.7 C-539.8 549.1 -541.2 558.5 -542.2 568.3 C-542.7 573.3 -543.3 578.2 -544 583.2 C-546.4 599.6 -547.9 615.7 -548.1 632.3 C-548.1 633.3 -548.1 634.3 -548.1 635.4 C-548.3 652.3 -548.4 669.4 -545.9 686.2 C-544.8 693.7 -544.3 701.4 -543.8 709 C-543.5 714.5 -542.9 719.7 -541.6 725.1 C-540.6 729.1 -540.2 733.2 -539.7 737.3 C-538.5 745.8 -536.8 754 -534.6 762.3 C-534 764.3 -533.5 766.4 -533.1 768.4 C-531.1 776.5 -528.9 784.4 -526.1 792.3 C-525.8 793.1 -525.5 793.9 -525.2 794.8 C-524.1 797.6 -523.1 800.4 -522.1 803.3 C-521.5 804.7 -521 806.1 -520.5 807.5 C-508.7 839.9 -508.7 839.9 -503.1 850.3 C-502 852.2 -501 854.1 -500 855.9 C-499.3 857.2 -498.6 858.5 -497.9 859.8 C-496.1 863.2 -494.5 866.6 -493 870.2 C-491.1 874.5 -488.8 878.5 -486.6 882.6 C-485.7 884.2 -484.8 885.8 -484 887.4 C-480.9 893.1 -477.6 898.7 -474.1 904.3 C-473.4 905.4 -472.7 906.4 -472 907.5 C-471.7 908 -471.4 908.6 -471.1 909.1 C-470.8 909.6 -470.5 910.1 -470.1 910.6 C-469.8 911.2 -469.4 911.8 -469.1 912.3 C-467.1 915.6 -465.1 918.9 -463.2 922.2 C-454.2 937.3 -442.8 951 -431.3 964.3 C-428.4 967.6 -425.6 971 -422.9 974.5 C-418.8 979.6 -414.5 984.5 -410.1 989.3 C-409.5 989.9 -408.9 990.5 -408.3 991.1 C-396.3 1004 -384.3 1016.3 -370.5 1027.3 C-368.3 1029.1 -366.2 1030.9 -364.1 1032.8 C-360.3 1036.2 -356.2 1039.2 -352 1042.2 C-350 1043.5 -348.1 1045 -346.3 1046.4 C-339.5 1051.6 -332.5 1056.2 -325.3 1060.6 C-322.4 1062.4 -319.6 1064.2 -316.8 1066.1 C-309.8 1070.7 -303 1075 -295.4 1078.6 C-290.5 1080.9 -285.9 1083.8 -281.3 1086.7 C-273.9 1091.3 -266.4 1095 -258.4 1098.4 C-254.2 1100.2 -250.1 1102.2 -246.1 1104.3 C-238.3 1108.3 -230.3 1111.4 -222.1 1114.5 C-219.2 1115.6 -216.4 1116.8 -213.6 1117.9 C-203 1122.4 -192.3 1125.7 -181.2 1128.8 C-173.5 1131 -165.9 1133.3 -158.4 1135.9 C-154.5 1137.2 -150.7 1138 -146.7 1138.7 C-143.9 1139.3 -141.1 1140 -138.2 1140.7 C-136.2 1141.2 -134.1 1141.7 -132.1 1142.3 C-131 1142.5 -130 1142.8 -128.9 1143 C-122.4 1144.6 -116 1145.8 -109.3 1146.5 C-106.4 1146.9 -103.8 1147.3 -101.1 1148.3 C-97.1 1149.6 -93.3 1149.7 -89.1 1149.8 C-86.5 1150 -84.5 1150.1 -82.1 1151.2 C-78.9 1152.8 -75.5 1152.9 -71.9 1153.3 C-70.5 1153.4 -69.1 1153.6 -67.6 1153.7 C-66.8 1153.8 -66 1153.9 -65.1 1153.9 C-62.7 1154.2 -60.4 1154.5 -58 1154.7 C-48 1155.9 -38.1 1156.8 -28.1 1157.4 C-27.4 1157.4 -26.6 1157.5 -25.9 1157.5 C-10.1 1158.4 5.6 1158.5 21.4 1158.5 C23.3 1158.5 25.2 1158.5 27.1 1158.5 C63 1158.7 63 1158.7 79.9 1155.3 C82.5 1155 85 1154.8 87.6 1154.6 C89.1 1154.5 90.6 1154.4 92.1 1154.3 C92.5 1154.3 92.5 1154.3 94.5 1154.1 C107.4 1153.2 119.9 1151.9 132.5 1149.2 C137.6 1148.1 142.6 1147.5 147.8 1146.9 C150.7 1146.6 153.2 1146.2 155.9 1145.3 C159.3 1144.1 162.5 1143.7 166 1143.4 C171 1142.8 175.6 1141.9 180.4 1140.3 C185.1 1138.7 189.5 1137.8 194.3 1137.3 C201.5 1136.5 208.2 1134.7 215.1 1132.8 C221.7 1130.9 228.4 1129.5 235.1 1128.5 C241.9 1127.3 248 1124.6 254.4 1122.1 C262.7 1118.7 271.1 1115.5 280.1 1114.3 C289.9 1112.8 298.9 1108.3 308 1104.4 C313.7 1101.9 319.5 1099.9 325.5 1098.3 C328.1 1097.6 330.3 1096.6 332.7 1095.4 C333.4 1095.1 334.1 1094.7 334.8 1094.4 C335.5 1094 336.2 1093.6 336.9 1093.3 C338.2 1092.6 339.4 1092 340.7 1091.4 C341 1091.2 341 1091.2 342.6 1090.4 C348.5 1087.4 354.4 1084.5 360.4 1081.8 C371.5 1076.6 382.4 1071.3 392.9 1065 C396.3 1063.1 399.7 1061.3 403.2 1059.6 C407.7 1057.4 411.9 1055.1 416.1 1052.4 C418 1051.2 419.9 1050.2 421.9 1049.1 C440.9 1038.6 459.4 1025.7 476.5 1012.4 C478.1 1011.1 479.8 1009.9 481.4 1008.6 C489.9 1002 498.1 995.3 505.5 987.6 C510.5 982.8 515.8 978.3 521 973.8 C523.9 971.2 526.7 968.5 529.4 965.8 C532.3 962.8 535.2 960.2 538.6 957.7 C543 954.3 546.4 950.5 549.9 946.3 C552.9 942.9 555.9 939.6 558.9 936.3 C559.5 935.6 560.1 934.9 560.7 934.3 C570.2 923.8 583.3 915.8 596.9 912.3 C597.8 911.9 598.6 911.6 599.4 911.2 C602.1 910.2 604.5 909.6 607.3 909.1 C608.2 909 609.1 908.8 610 908.6 C623.3 907 639.1 911.4 649.9 919.3 C661.6 929.1 670.3 942.9 671.9 958.3 C673.8 983.1 663.7 1005.4 649.3 1025 C647.5 1027.5 645.7 1030.1 644.1 1032.8 C639.7 1039.4 634.2 1045.3 628.9 1051.3 C628.3 1052.1 627.6 1052.8 626.9 1053.7 C625.7 1054.9 624.6 1056.2 623.5 1057.5 C622.4 1058.7 621.3 1060 620.2 1061.3 C615.2 1067.1 610.1 1072.5 604.2 1077.4 C599 1082 594.2 1087 589.3 1092 C585.3 1096.1 581.3 1099.6 576.8 1102.9 C574.1 1104.8 571.8 1107 569.4 1109.3 C563.5 1114.7 557.5 1119.3 550.6 1123.6 C546.2 1126.3 542.3 1129.3 538.3 1132.6 C527.9 1141.3 516.7 1148.9 505.1 1155.9 C502.9 1157.3 500.6 1158.7 498.4 1160.1 C487.8 1166.6 476.9 1172.6 465.9 1178.5 C460.8 1181.1 455.8 1183.9 451 1187 C446.8 1189.6 442.3 1191.8 437.9 1194.1 C436.9 1194.6 435.9 1195.1 434.9 1195.7 C429 1198.7 423 1201.8 417.1 1204.8 C416.5 1205.1 415.9 1205.4 415.3 1205.7 C391.9 1217.3 367.1 1227.4 342.1 1234.8 C336 1236.6 330.3 1238.6 324.6 1241.1 C318.5 1243.7 312.3 1245.8 305.9 1247.3 C302.9 1248 300.2 1248.9 297.3 1250 C290.8 1252.5 284 1254.2 277.3 1256 C271.9 1257.4 266.7 1259 261.6 1260.8 C254.1 1263.5 246.5 1264.9 238.8 1266.4 C233 1267.6 227.4 1268.9 221.8 1270.4 C216 1272.1 210.3 1273.1 204.5 1273.9 C201.9 1274.3 201.9 1274.3 199.9 1275.3 C198.7 1275.4 197.5 1275.6 196.3 1275.7 C195.6 1275.8 194.9 1275.8 194.1 1275.9 C193.7 1275.9 193.7 1275.9 191.8 1276.1 C185.6 1276.8 179.5 1277.6 173.4 1278.8 C173.1 1278.9 173.1 1278.9 171.5 1279.2 C169.2 1279.7 167.1 1280.2 164.9 1281.3 C163 1281.6 161.1 1281.9 159.2 1282.2 C158.9 1282.2 158.9 1282.2 157.4 1282.4 C155.6 1282.7 153.7 1282.9 151.8 1283.2 C150.5 1283.4 149.3 1283.6 148 1283.7 C140.5 1284.8 133.1 1285.8 125.6 1286.7 C123.3 1286.9 120.9 1287.3 118.6 1287.8 C116 1288.3 113.6 1288.4 110.9 1288.5 C110 1288.5 109 1288.6 108.1 1288.6 C106.1 1288.7 104.1 1288.7 102.2 1288.8 C97.4 1288.9 92.7 1289.3 87.9 1290 C79.1 1291.3 70.3 1291.7 61.4 1291.9 C59.8 1291.9 58.2 1292 56.7 1292 C40.7 1292.4 24.7 1292.4 8.7 1292.4 C4.7 1292.4 0.7 1292.4 -3.3 1292.4 C-31.5 1292.4 -31.5 1292.4 -44 1291.9 C-44.8 1291.8 -45.5 1291.8 -46.3 1291.8 C-50.4 1291.6 -53.3 1290.8 -57.1 1289.3 C-59.6 1289 -59.6 1289 -62.2 1288.9 C-63.1 1288.9 -64.1 1288.9 -65 1288.8 C-66 1288.8 -67 1288.8 -68 1288.8 C-74.2 1288.6 -79.2 1288.3 -85.1 1286.3 C-88.5 1285.8 -91.9 1285.6 -95.3 1285.4 C-105.5 1284.6 -115.1 1282.7 -125.1 1280.3 C-128.1 1279.5 -131.1 1278.8 -134.1 1278.1 C-134.8 1277.9 -135.6 1277.7 -136.3 1277.5 C-139.7 1276.7 -143 1276.1 -146.6 1275.8 C-152.5 1275.4 -158.1 1273.3 -163.8 1271.5 C-168.4 1270.2 -172.9 1269 -177.5 1267.9 C-180.1 1267.3 -180.1 1267.3 -182.3 1266.3 C-185.4 1265.1 -188.4 1264.5 -191.6 1263.8 C-203 1261.3 -214.2 1257.7 -225.2 1253.7 C-231.2 1251.5 -237.3 1249.5 -243.4 1247.5 C-245.1 1246.9 -246.9 1246.3 -248.7 1245.7 C-254.1 1243.9 -259.5 1242.1 -265 1240.4 C-282.1 1235.1 -298.1 1227.7 -314.2 1220.1 C-316.9 1218.9 -319.6 1217.6 -322.3 1216.4 C-331.6 1212 -340.6 1207.5 -349.4 1202.2 C-354.3 1199.4 -359.3 1196.7 -364.4 1193.9 C-373.6 1188.9 -382.5 1183.5 -391.2 1177.5 C-396.2 1174.1 -401.3 1170.7 -406.4 1167.4 C-425.9 1154.5 -445.8 1141.3 -462.9 1125.3 C-465.4 1123 -467.9 1120.9 -470.6 1118.8 C-474.3 1115.7 -478 1112.6 -481.6 1109.4 C-482.4 1108.7 -483.1 1108 -484 1107.3 C-485.9 1105.4 -487.6 1103.6 -489.1 1101.3 C-489.1 1100.6 -489.1 1099.9 -489.1 1099.3 C-489.6 1099 -490.2 1098.8 -490.7 1098.5 C-493.6 1096.9 -496 1094.9 -498.4 1092.6 C-498.9 1092.2 -499.4 1091.7 -499.9 1091.3 C-503.2 1088.2 -506.3 1084.9 -509.2 1081.5 C-511.6 1078.7 -514.1 1076 -516.6 1073.3 C-520.3 1069.3 -523.9 1065.2 -527.5 1061.1 C-528.5 1059.9 -529.6 1058.7 -530.7 1057.5 C-538.2 1049 -544.9 1039.9 -551.6 1030.9 C-554.1 1027.5 -556.7 1024.2 -559.3 1021 C-564.3 1014.6 -568.8 1008.2 -573.1 1001.3 C-574.3 999.4 -575.5 997.5 -576.7 995.6 C-577.3 994.7 -577.8 993.8 -578.4 992.8 C-579.4 991.3 -580.4 989.7 -581.4 988.1 C-583.7 984.6 -585.7 981.1 -587.5 977.3 C-589.1 973.9 -590.9 970.9 -593.1 967.8 C-596.2 963.1 -598.6 958.3 -601.1 953.3 C-604.9 945.4 -608.9 937.7 -613.2 930.1 C-616.3 924.5 -619.3 918.9 -621.9 913 C-622.8 910.9 -623.7 908.9 -624.7 906.8 C-628.1 899.8 -631 892.9 -633.3 885.5 C-634.8 881 -636.7 876.8 -638.9 872.5 C-640.7 868.9 -641.9 865.1 -643.1 861.3 C-644.5 856.7 -646 852.3 -647.9 847.9 C-650.3 841.8 -652.2 835.5 -654.1 829.1 C-654.7 827.1 -655.3 825.1 -655.9 823.1 C-657.7 816.9 -659.6 810.6 -661.1 804.3 C-661.4 803 -661.7 801.7 -662 800.4 C-664.3 791 -666.1 781.6 -667.7 772.1 C-668.6 767 -669.5 762 -671 757.1 C-672.2 753.1 -672.7 749.1 -673.1 744.9 C-673.1 744.1 -673.2 743.3 -673.3 742.5 C-673.6 740 -673.8 737.5 -674.1 735 C-674.4 731.7 -674.7 728.5 -675.1 725.2 C-675.1 724.4 -675.2 723.6 -675.3 722.8 C-675.7 718.7 -676.3 714.7 -677.1 710.7 C-678.6 702.9 -678.8 694.9 -679.2 687 C-679.2 686.2 -679.3 685.3 -679.3 684.4 C-680.4 660.7 -680.4 637.4 -678.7 613.6 C-678.6 612.8 -678.6 611.9 -678.5 611 C-677.8 602.1 -677 593.3 -675.5 584.5 C-675 580.8 -674.6 577.1 -674.3 573.4 C-674.3 573.1 -674.3 573.1 -674.1 571.4 C-673.9 568.7 -673.6 566 -673.4 563.2 C-673.2 561.2 -673 559.2 -672.8 557.2 C-672.8 556.6 -672.7 556 -672.7 555.3 C-672.3 551.4 -671.4 548 -670.1 544.3 C-669.7 542.4 -669.4 540.6 -669.1 538.8 C-668.4 534.4 -667.6 530.1 -666.7 525.7 C-666.4 524.5 -666.1 523.3 -665.9 522 C-665.8 521.7 -665.8 521.7 -665.5 520.1 C-664.9 517.7 -664.4 515.3 -663.9 512.9 C-663.4 510.6 -662.9 508.2 -662.4 505.8 C-662.2 504.7 -661.9 503.5 -661.7 502.3 C-660.2 495.3 -658.6 488.5 -656.7 481.6 C-655.7 477.8 -654.7 473.9 -653.8 470.1 C-653.3 468.2 -652.7 466.3 -652.1 464.5 C-650.8 460.5 -649.7 456.5 -648.6 452.4 C-646 442.8 -643.2 433.3 -638.6 424.4 C-637.4 422 -636.6 419.8 -635.8 417.3 C-633.9 411.6 -631.6 406.1 -629.3 400.6 C-629.1 400 -629.1 400 -628 397.4 C-625.3 391.1 -622.5 385 -619.4 378.9 C-617.6 375.4 -616.1 371.9 -614.8 368.2 C-611.5 359.3 -606.9 351.1 -602.4 342.8 C-601.1 340.3 -599.8 337.7 -598.5 335.1 C-596.4 331 -594.3 327 -591.9 323.1 C-591.7 322.8 -591.7 322.8 -590.7 321.2 C-589.9 319.9 -589.1 318.6 -588.3 317.3 C-587.5 315.9 -586.6 314.6 -585.8 313.2 C-580.9 305.2 -575.8 297.4 -570.1 289.9 C-567.8 286.9 -565.6 283.7 -563.5 280.5 C-560.2 275.4 -556.7 270.2 -552.9 265.5 C-551.1 263.3 -551.1 263.3 -549.4 260.6 C-547.2 257.2 -544.5 254.4 -541.8 251.4 C-538.7 248 -535.7 244.5 -532.7 240.9 C-528.4 235.8 -524 230.9 -519.5 226 C-516.2 222.5 -516.2 222.5 -515.1 220.3 C-514.4 220.3 -513.7 220.3 -513.1 220.3 C-512.8 219.7 -512.5 219.1 -512.3 218.5 C-511 216.2 -509.7 214.7 -507.8 212.8 C-507.2 212.2 -506.6 211.6 -505.9 210.9 C-505.6 210.6 -505.6 210.6 -503.9 209 C-503.3 208.4 -502.6 207.7 -501.9 207 C-497.1 202.3 -497.1 202.3 -495.1 202.3 C-494.7 201.3 -494.4 200.3 -494.1 199.3 C-493.4 199.3 -492.7 199.3 -492.1 199.3 C-492.1 198.6 -492.1 197.9 -492.1 197.3 C-491.6 196.9 -491.2 196.5 -490.7 196.1 C-487.5 193.3 -484.3 190.5 -481.2 187.6 C-480.7 187.1 -480.2 186.7 -479.7 186.2 C-478.7 185.3 -477.7 184.4 -476.7 183.5 C-473.3 180.3 -473.3 180.3 -471.1 180.3 C-471.1 179.6 -471.1 178.9 -471.1 178.3 C-469.9 177.3 -468.8 176.3 -467.7 175.3 C-467.4 175 -467.4 175 -465.8 173.6 C-464.1 172.3 -464.1 172.3 -462.1 172.3 C-461.8 171.7 -461.5 171.1 -461.3 170.5 C-459.9 168 -458.7 166.9 -456.5 165.2 C-455.8 164.7 -455 164.1 -454.3 163.5 C-453.5 163 -452.7 162.4 -451.9 161.8 C-451.5 161.5 -451.5 161.5 -449.5 159.9 C-447.8 158.6 -446.2 157.4 -444.5 156.1 C-442.2 154.4 -440 152.7 -437.7 150.9 C-431.2 145.9 -424.6 141.2 -417.6 136.9 C-414.9 135.1 -412.3 133.2 -409.7 131.3 C-405.3 128 -400.8 125.4 -396 122.9 C-392.1 120.9 -388.5 118.7 -384.9 116.2 C-379.5 112.5 -373.9 109.3 -368.1 106.3 C-365.9 105.1 -363.8 104 -361.7 102.9 C-361.4 102.7 -361.4 102.7 -360 102 C-356.1 99.9 -352.4 97.6 -348.6 95.3 C-343.7 92.2 -338.7 89.5 -333.4 86.9 C-328.3 84.4 -323.3 81.7 -318.3 79 C-315 77.2 -311.6 75.6 -308.1 74.1 C-305.6 73.1 -303.1 72 -300.6 70.8 C-288.9 65.6 -277.2 60.6 -265.2 55.9 C-261.5 54.4 -257.8 52.9 -254.1 51.3 C-247.1 48.3 -240.3 45.5 -233.1 43.3 C-231.9 42.9 -230.7 42.5 -229.5 42.1 C-227.4 41.5 -225.4 40.9 -223.3 40.2 C-218.8 38.8 -214.3 37.3 -209.8 35.8 C-200.6 32.7 -191.4 30 -182.1 27.3 C-181.3 27 -180.4 26.8 -179.6 26.5 C-171.4 24.1 -163.4 22 -154.9 20.7 C-147.4 19.5 -140 17.6 -132.7 15.3 C-120.3 11.4 -107.4 9.8 -94.5 8.4 C-90.3 7.9 -86.2 7.4 -82.1 6.2 C-76.8 4.8 -71.4 4.6 -66 4.2 C-64.9 4.1 -63.8 4 -62.6 3.9 C-57.4 3.6 -52.2 3.2 -46.9 2.9 C-46.3 2.8 -45.6 2.8 -44.9 2.8 C-43.9 2.7 -42.8 2.6 -41.7 2.6 C-38.3 2.3 -35.1 1.8 -31.8 1.2 C-21.3 -0.3 -10.6 -0 0 0 Z "/>
</g>
<g transform="translate(479,614) scale(0.36892)"><path d="M189 -740V0H75V-740Z M840 -233H419Q424 -167 468 -127Q512 -87 576 -87Q668 -87 706 -164H829Q804 -88 738.5 -39.5Q673 9 576 9Q497 9 434.5 -26.5Q372 -62 336.5 -126.5Q301 -191 301 -276Q301 -361 335.5 -425.5Q370 -490 432.5 -525Q495 -560 576 -560Q654 -560 715 -526Q776 -492 810 -430.5Q844 -369 844 -289Q844 -258 840 -233ZM725 -325Q724 -388 680 -426Q636 -464 571 -464Q512 -464 470 -426.5Q428 -389 420 -325Z M1178 -560Q1243 -560 1291.5 -534.5Q1340 -509 1369 -471V-551H1484V0H1369V-82Q1340 -43 1290 -17Q1240 9 1176 9Q1105 9 1046 -27.5Q987 -64 952.5 -129.5Q918 -195 918 -278Q918 -361 952.5 -425Q987 -489 1046.5 -524.5Q1106 -560 1178 -560ZM1202 -461Q1158 -461 1120 -439.5Q1082 -418 1058.5 -376.5Q1035 -335 1035 -278Q1035 -221 1058.5 -178Q1082 -135 1120.5 -112.5Q1159 -90 1202 -90Q1246 -90 1284 -112Q1322 -134 1345.5 -176.5Q1369 -219 1369 -276Q1369 -333 1345.5 -375Q1322 -417 1284 -439Q1246 -461 1202 -461Z M1913 -560V-442H1884Q1817 -442 1782.5 -408Q1748 -374 1748 -290V0H1634V-551H1748V-471Q1773 -513 1814.5 -536.5Q1856 -560 1913 -560Z M2258 -282H2132V0H2018V-695H2258Q2338 -695 2393.5 -667.5Q2449 -640 2476.5 -593Q2504 -546 2504 -488Q2504 -435 2479 -388Q2454 -341 2399 -311.5Q2344 -282 2258 -282ZM2387 -488Q2387 -602 2258 -602H2132V-375H2258Q2323 -375 2355 -404.5Q2387 -434 2387 -488Z M2835 -560Q2900 -560 2948.5 -534.5Q2997 -509 3026 -471V-551H3141V0H3026V-82Q2997 -43 2947 -17Q2897 9 2833 9Q2762 9 2703 -27.5Q2644 -64 2609.5 -129.5Q2575 -195 2575 -278Q2575 -361 2609.5 -425Q2644 -489 2703.5 -524.5Q2763 -560 2835 -560ZM2859 -461Q2815 -461 2777 -439.5Q2739 -418 2715.5 -376.5Q2692 -335 2692 -278Q2692 -221 2715.5 -178Q2739 -135 2777.5 -112.5Q2816 -90 2859 -90Q2903 -90 2941 -112Q2979 -134 3002.5 -176.5Q3026 -219 3026 -276Q3026 -333 3002.5 -375Q2979 -417 2941 -439Q2903 -461 2859 -461Z M3704 -471V-551H3819V9Q3819 85 3787 144.5Q3755 204 3694.5 238Q3634 272 3550 272Q3438 272 3364 219.5Q3290 167 3280 77H3393Q3406 120 3448.5 146.5Q3491 173 3550 173Q3619 173 3661.5 131Q3704 89 3704 9V-83Q3675 -44 3625.5 -17.5Q3576 9 3513 9Q3441 9 3381.5 -27.5Q3322 -64 3287.5 -129.5Q3253 -195 3253 -278Q3253 -361 3287.5 -425Q3322 -489 3381.5 -524.5Q3441 -560 3513 -560Q3577 -560 3626.5 -534.5Q3676 -509 3704 -471ZM3537 -461Q3493 -461 3455 -439.5Q3417 -418 3393.5 -376.5Q3370 -335 3370 -278Q3370 -221 3393.5 -178Q3417 -135 3455.5 -112.5Q3494 -90 3537 -90Q3581 -90 3619 -112Q3657 -134 3680.5 -176.5Q3704 -219 3704 -276Q3704 -333 3680.5 -375Q3657 -417 3619 -439Q3581 -461 3537 -461Z M4470 -233H4049Q4054 -167 4098 -127Q4142 -87 4206 -87Q4298 -87 4336 -164H4459Q4434 -88 4368.5 -39.5Q4303 9 4206 9Q4127 9 4064.5 -26.5Q4002 -62 3966.5 -126.5Q3931 -191 3931 -276Q3931 -361 3965.5 -425.5Q4000 -490 4062.5 -525Q4125 -560 4206 -560Q4284 -560 4345 -526Q4406 -492 4440 -430.5Q4474 -369 4474 -289Q4474 -258 4470 -233ZM4355 -325Q4354 -388 4310 -426Q4266 -464 4201 -464Q4142 -464 4100 -426.5Q4058 -389 4050 -325Z" fill="#FAF2DE"/></g>
</svg>