<svg xmlns="http://www.w3.org/2000/svg" viewBox="0 42 262 70" role="img" aria-label="Sonati">
  <style>
    text {
      font-family: -apple-system, BlinkMacSystemFont, 'Segoe UI', 'Roboto', 'Oxygen', 'Ubuntu', 'Cantarell', sans-serif;
      font-size: 64px;
      font-weight: 500;
      letter-spacing: 1px;
      fill: #0f172a;
    }
  </style>
  <text x="96.27" y="100" text-anchor="end">So</text>
  <g transform="translate(86.321,11.402) scale(0.12679)">
    <path d="M110.00,512.00 L111.68,516.52 L113.36,521.12 L115.03,525.79 L116.71,530.52 L118.39,535.31 L120.07,540.14 L121.75,545.01 L123.42,549.90 L125.10,554.81 L126.78,559.72 L128.46,564.63 L130.14,569.52 L131.82,574.39 L133.49,579.21 L135.17,583.99 L136.85,588.71 L138.53,593.35 L140.21,597.92 L141.88,602.40 L143.56,606.77 L145.24,611.02 L146.92,615.16 L148.60,619.16 L150.27,623.01 L151.95,626.71 L153.63,630.24 L155.31,633.60 L156.99,636.78 L158.67,639.76 L160.34,642.53 L162.02,645.10 L163.70,647.44 L165.38,649.56 L167.06,651.44 L168.73,653.08 L170.41,654.48 L172.09,655.61 L173.77,656.48 L175.45,657.09 L177.12,657.43 L178.80,657.49 L180.48,657.27 L182.16,656.76 L183.84,655.97 L185.52,654.90 L187.19,653.53 L188.87,651.87 L190.55,649.92 L192.23,647.68 L193.91,645.15 L195.58,642.33 L197.26,639.22 L198.94,635.83 L200.62,632.15 L202.30,628.20 L203.97,623.98 L205.65,619.49 L207.33,614.73 L209.01,609.72 L210.69,604.46 L212.37,598.96 L214.04,593.22 L215.72,587.26 L217.40,581.08 L219.08,574.69 L220.76,568.11 L222.43,561.34 L224.11,554.16 L225.79,546.89 L227.47,539.55 L229.15,532.16 L230.82,524.74 L232.50,517.29 L234.18,509.83 L235.86,502.38 L237.54,494.94 L239.21,487.53 L240.89,480.17 L242.57,472.87 L244.25,465.64 L245.93,458.49 L247.61,451.44 L249.28,444.50 L250.96,437.68 L252.64,431.00 L254.32,424.46 L256.00,418.08 L257.67,411.88 L259.35,405.85 L261.03,400.02 L262.71,394.39 L264.39,388.98 L266.06,383.79 L267.74,378.83 L269.42,374.11 L271.10,369.64 L272.78,365.44 L274.46,361.50 L276.13,357.83 L277.81,354.44 L279.49,351.34 L281.17,348.53 L282.85,346.01 L284.52,343.80 L286.20,341.90 L287.88,340.30 L289.56,339.01 L291.24,338.04 L292.91,337.39 L294.59,337.05 L296.27,337.03 L297.95,337.33 L299.63,337.94 L301.31,338.87 L302.98,340.12 L304.66,341.68 L306.34,343.54 L308.02,345.72 L309.70,348.19 L311.37,350.96 L313.05,354.03 L314.73,357.38 L316.41,361.01 L318.09,364.92 L319.76,369.10 L321.44,373.53 L323.12,378.21 L324.80,383.14 L326.48,388.30 L328.16,393.69 L329.83,399.29 L331.51,405.10 L333.19,411.10 L334.87,417.28 L336.55,423.64 L338.22,430.16 L339.90,436.82 L341.58,443.62 L343.26,450.55 L344.94,457.59 L346.61,464.72 L348.29,471.95 L349.97,479.24 L351.65,486.60 L353.33,494.00 L355.00,501.43 L356.68,508.88 L358.36,516.34 L360.04,523.79 L361.72,531.22 L363.40,538.61 L365.07,545.96 L366.75,553.24 L368.43,560.45 L370.11,567.57 L371.79,574.59 L373.46,581.50 L375.14,588.28 L376.82,594.92 L378.50,601.41 L380.18,607.74 L381.85,613.90 L383.53,619.87 L385.21,625.64 L386.89,631.21 L388.57,636.56 L390.25,641.68 L391.92,646.57 L393.60,651.22 L395.28,655.61 L396.96,659.74 L398.64,663.60 L400.31,667.19 L401.99,670.49 L403.67,673.51 L405.35,676.23 L407.03,678.66 L408.70,680.78 L410.38,682.60 L412.06,684.11 L413.74,685.30 L415.42,686.18 L417.10,686.74 L418.77,686.99 L420.45,686.92 L422.13,686.53 L423.81,685.82 L425.49,684.80 L427.16,683.46 L428.84,681.81 L430.52,679.86 L432.20,677.59 L433.88,675.03 L435.55,672.17 L437.23,669.02 L438.91,665.59 L440.59,661.88 L442.27,657.89 L443.95,653.64 L445.62,649.13 L447.30,644.38 L448.98,639.38 L450.66,634.15 L452.34,628.70 L454.01,623.04 L455.69,617.17 L457.37,611.12 L459.05,604.88 L460.73,598.48 L462.40,591.92 L464.08,585.21 L465.76,578.37 L467.44,571.41 L469.12,564.35 L470.79,557.18 L472.47,549.94 L474.15,542.62 L475.83,535.26 L477.51,527.84 L479.19,520.40 L480.86,512.95 L482.54,505.49 L484.22,498.05 L485.90,490.62 L487.58,483.24 L489.25,475.91 L490.93,468.65 L492.61,461.47 L494.29,454.37 L495.97,447.39 L497.64,440.51 L499.32,433.77 L501.00,427.17 L502.68,420.73 L504.36,414.45 L506.04,408.35 L507.71,402.43 L509.39,396.72 L511.07,391.21 L512.75,385.93 L514.43,380.87 L516.10,376.05 L517.78,371.48 L519.46,367.16 L521.14,363.11 L522.82,359.33 L524.49,355.82 L526.17,352.60 L527.85,349.67 L529.53,347.03 L531.21,344.69 L532.89,342.66 L534.56,340.93 L536.24,339.51 L537.92,338.41 L539.60,337.62 L541.28,337.15 L542.95,337.00 M666.61,687.00 L668.29,686.84 L669.98,686.36 L671.66,685.57 L673.34,684.45 L675.02,683.02 L676.71,681.28 L678.39,679.23 L680.07,676.88 L681.76,674.22 L683.44,671.27 L685.12,668.02 L686.80,664.49 L688.49,660.69 L690.17,656.61 L691.85,652.26 L693.54,647.66 L695.22,642.81 L696.90,637.73 L698.58,632.41 L700.27,626.88 L701.95,621.13 L703.63,615.18 L705.32,609.05 L707.00,602.74 L708.68,596.26 L710.37,589.63 L712.05,582.86 L713.73,575.96 L715.41,568.94 L717.10,561.81 L718.78,554.60 L720.46,547.31 L722.15,539.95 L723.83,532.54 L725.51,525.10 L727.19,517.63 L728.88,510.15 L730.56,502.67 L732.24,495.22 L733.93,487.79 L735.61,480.40 L737.29,473.08 L738.98,465.82 L740.66,458.65 L742.34,451.58 L744.02,444.62 L745.71,437.78 L747.39,431.07 L749.07,424.52 L750.76,418.12 L752.44,411.89 L754.12,405.85 L755.80,400.00 L757.49,394.36 L759.17,388.93 L760.85,383.73 L762.54,378.76 L764.22,374.03 L765.90,369.56 L767.59,365.34 L769.27,361.40 L770.95,357.73 L772.63,354.34 L774.32,351.24 L776.00,348.43 L777.68,345.92 L779.37,343.71 L781.05,341.82 L782.73,340.23 L784.41,338.96 L786.10,338.00 L787.78,337.36 L789.46,337.04 L791.15,337.04 L792.83,337.36 L794.51,338.00 L796.19,338.95 L797.88,340.22 L799.56,341.81 L801.24,343.71 L802.93,346.79 L804.61,350.26 L806.29,354.00 L807.98,357.99 L809.66,362.22 L811.34,366.68 L813.02,371.37 L814.71,376.26 L816.39,381.35 L818.07,386.62 L819.76,392.06 L821.44,397.66 L823.12,403.41 L824.80,409.28 L826.49,415.28 L828.17,421.38 L829.85,427.58 L831.54,433.85 L833.22,440.19 L834.90,446.58 L836.59,453.01 L838.27,459.46 L839.95,465.93 L841.63,472.40 L843.32,478.85 L845.00,485.27 L846.68,491.66 L848.37,497.99 L850.05,504.26 L851.73,510.46 L853.41,516.57 L855.10,522.58 L856.78,528.48 L858.46,534.27 L860.15,539.92 L861.83,545.44 L863.51,550.80 L865.20,556.02 L866.88,561.06 L868.56,565.94 L870.24,570.63 L871.93,575.14 L873.61,579.45 L875.29,583.56 L876.98,587.47 L878.66,591.17 L880.34,594.65 L882.02,597.92 L883.71,600.96 L885.39,603.78 L887.07,606.37 L888.76,608.73 L890.44,610.86 L892.12,612.76 L893.80,614.43 L895.49,615.87 L897.17,617.08 L898.85,618.06 L900.54,618.81 L902.22,619.34 L903.90,619.64 L905.59,619.73 L907.27,619.59 L908.95,619.25 L910.63,618.70 L912.32,617.95 L914.00,617.00" fill="none" stroke="#0f172a" stroke-width="56"
          stroke-linecap="round" stroke-linejoin="round"/>
  </g>
  <circle cx="163.00" cy="76.32" r="2.66" fill="#0D9488"/>
  <text x="207.48" y="100" text-anchor="start">t</text>
  <text x="233.48" y="100" text-anchor="start">&#x131;</text>
  <circle cx="241.98" cy="60.32" r="5.12" fill="#0D9488"/>
</svg>
